<svg width="962" height="165" viewBox="0 0 962 165" fill="none" xmlns="http://www.w3.org/2000/svg">
<path d="M103.276 68H92.4759V34.4H79.8759V26H115.876V34.4H103.276V68ZM156.683 68H145.883V50.9H130.883V68H120.083V26H130.883V42.5H145.883V26H156.683V68ZM197.211 68H163.911V26H197.211V34.4H174.711V42.5H192.411V50.9H174.711V59.6H197.211V68ZM249.385 77.6C246.585 78 243.905 78.2 241.345 78.2C238.785 78.2 236.685 77.38 235.045 75.74C233.405 74.1 232.585 71.92 232.585 69.2V68.6H230.785C226.585 68.6 223.525 67.66 221.605 65.78C219.725 63.86 218.785 60.8 218.785 56.6V37.4C218.785 33.2 219.725 30.16 221.605 28.28C223.525 26.36 226.585 25.4 230.785 25.4H245.785C249.985 25.4 253.025 26.36 254.905 28.28C256.825 30.16 257.785 33.2 257.785 37.4V56.6C257.785 60.8 256.825 63.86 254.905 65.78C253.025 67.66 249.985 68.6 245.785 68.6H242.785V69.2C242.785 69.8 242.985 70.3 243.385 70.7C243.785 71.1 244.285 71.3 244.885 71.3H249.385V77.6ZM246.985 37.4C246.985 35 245.785 33.8 243.385 33.8H233.185C230.785 33.8 229.585 35 229.585 37.4V56.6C229.585 59 230.785 60.2 233.185 60.2H243.385C245.785 60.2 246.985 59 246.985 56.6V37.4ZM290.813 26H301.613V56.6C301.613 60.8 300.653 63.86 298.733 65.78C296.853 67.66 293.813 68.6 289.613 68.6H275.813C271.613 68.6 268.553 67.66 266.633 65.78C264.753 63.86 263.813 60.8 263.813 56.6V26H274.613V56.6C274.613 59 275.813 60.2 278.213 60.2H287.213C289.613 60.2 290.813 59 290.813 56.6V26ZM315.142 68H303.442L319.342 26H331.342L347.242 68H335.542L332.842 60.5H317.842L315.142 68ZM320.542 52.7H330.142L325.342 38.6L320.542 52.7ZM386.839 68H375.439L361.039 42.8V68H350.239V26H361.639L376.039 51.2V26H386.839V68ZM414.467 68H403.667V34.4H391.067V26H427.067V34.4H414.467V68ZM458.274 26H469.074V56.6C469.074 60.8 468.114 63.86 466.194 65.78C464.314 67.66 461.274 68.6 457.074 68.6H443.274C439.074 68.6 436.014 67.66 434.094 65.78C432.214 63.86 431.274 60.8 431.274 56.6V26H442.074V56.6C442.074 59 443.274 60.2 445.674 60.2H454.674C457.074 60.2 458.274 59 458.274 56.6V26ZM512.274 44.6L503.874 59.6H495.474L487.074 44.6V68H476.274V26H487.674L499.674 48.2L511.674 26H523.074V68H512.274V44.6ZM93.6759 140H82.8759V98H116.176V106.4H93.6759V116.3H111.376V124.7H93.6759V140ZM140.176 140H118.576V131.6H123.976V106.4H118.576V98H140.176V106.4H134.776V131.6H140.176V140ZM165.971 140H155.171V106.4H142.571V98H178.571V106.4H165.971V140ZM219.378 140H207.978L193.578 114.8V140H182.778V98H194.178L208.578 123.2V98H219.378V140ZM259.906 140H226.606V98H259.906V106.4H237.406V114.5H255.106V122.9H237.406V131.6H259.906V140ZM263.432 131.3C274.392 131.9 281.812 132.2 285.692 132.2C286.612 132.2 287.332 131.94 287.852 131.42C288.412 130.86 288.692 130.12 288.692 129.2V123.8H274.892C270.692 123.8 267.632 122.86 265.712 120.98C263.832 119.06 262.892 116 262.892 111.8V110C262.892 105.8 263.832 102.76 265.712 100.88C267.632 98.96 270.692 98 274.892 98H295.952V106.4H277.292C274.892 106.4 273.692 107.6 273.692 110V111.2C273.692 113.6 274.892 114.8 277.292 114.8H288.092C292.012 114.8 294.892 115.72 296.732 117.56C298.572 119.4 299.492 122.28 299.492 126.2V129.2C299.492 133.12 298.572 136 296.732 137.84C294.892 139.68 292.012 140.6 288.092 140.6C286.052 140.6 283.892 140.56 281.612 140.48L276.092 140.24C272.012 140.04 267.792 139.76 263.432 139.4V131.3ZM303.628 131.3C314.588 131.9 322.008 132.2 325.888 132.2C326.808 132.2 327.528 131.94 328.048 131.42C328.608 130.86 328.888 130.12 328.888 129.2V123.8H315.088C310.888 123.8 307.828 122.86 305.908 120.98C304.028 119.06 303.088 116 303.088 111.8V110C303.088 105.8 304.028 102.76 305.908 100.88C307.828 98.96 310.888 98 315.088 98H336.148V106.4H317.488C315.088 106.4 313.888 107.6 313.888 110V111.2C313.888 113.6 315.088 114.8 317.488 114.8H328.288C332.208 114.8 335.088 115.72 336.928 117.56C338.768 119.4 339.688 122.28 339.688 126.2V129.2C339.688 133.12 338.768 136 336.928 137.84C335.088 139.68 332.208 140.6 328.288 140.6C326.248 140.6 324.088 140.56 321.808 140.48L316.288 140.24C312.208 140.04 307.988 139.76 303.628 139.4V131.3ZM395.471 139.4C386.551 140.2 379.151 140.6 373.271 140.6C369.351 140.6 366.471 139.68 364.631 137.84C362.791 136 361.871 133.12 361.871 129.2V110C361.871 105.8 362.811 102.76 364.691 100.88C366.611 98.96 369.671 98 373.871 98H395.471V106.4H376.271C373.871 106.4 372.671 107.6 372.671 110V129.2C372.671 130.12 372.931 130.86 373.451 131.42C374.011 131.94 374.711 132.2 375.551 132.2C376.391 132.2 377.311 132.2 378.311 132.2C379.311 132.16 380.351 132.12 381.431 132.08C382.511 132.04 383.591 132 384.671 131.96C385.791 131.92 387.211 131.84 388.931 131.72C390.691 131.6 392.871 131.46 395.471 131.3V139.4ZM411.078 131.6H432.978V140H400.278V98H411.078V131.6ZM464.192 98H474.992V128.6C474.992 132.8 474.032 135.86 472.112 137.78C470.232 139.66 467.192 140.6 462.992 140.6H449.192C444.992 140.6 441.932 139.66 440.012 137.78C438.132 135.86 437.192 132.8 437.192 128.6V98H447.992V128.6C447.992 131 449.192 132.2 451.592 132.2H460.592C462.992 132.2 464.192 131 464.192 128.6V98ZM482.192 98H506.192C510.112 98 512.992 98.9 514.832 100.7C516.672 102.46 517.592 105.16 517.592 108.8C517.592 111.2 517.072 113.16 516.032 114.68C514.992 116.16 513.712 117.2 512.192 117.8C515.432 118.68 517.632 120.84 518.792 124.28C519.192 125.52 519.392 126.96 519.392 128.6C519.392 132.52 518.472 135.4 516.632 137.24C514.792 139.08 511.912 140 507.992 140H482.192V98ZM508.592 126.8C508.592 124.4 507.392 123.2 504.992 123.2H492.992V131.6H504.992C507.392 131.6 508.592 130.4 508.592 128V126.8ZM506.792 110C506.792 107.6 505.592 106.4 503.192 106.4H492.992V114.8H503.192C505.592 114.8 506.792 113.6 506.792 111.2V110Z" fill="white"/>
<path d="M39.563 83H23.363V32.6H4.46299V20H58.463V32.6H39.563V83Z" fill="white"/>
<path d="M49.5 152.4C45.3 153 41.28 153.3 37.44 153.3C33.6 153.3 30.45 152.07 27.99 149.61C25.53 147.15 24.3 143.88 24.3 139.8V138.9H21.6C15.3 138.9 10.71 137.49 7.83 134.67C5.01 131.79 3.6 127.2 3.6 120.9V92.1C3.6 85.8 5.01 81.24 7.83 78.42C10.71 75.54 15.3 74.1 21.6 74.1H44.1C50.4 74.1 54.96 75.54 57.78 78.42C60.66 81.24 62.1 85.8 62.1 92.1V120.9C62.1 127.2 60.66 131.79 57.78 134.67C54.96 137.49 50.4 138.9 44.1 138.9H39.6V139.8C39.6 140.7 39.9 141.45 40.5 142.05C41.1 142.65 41.85 142.95 42.75 142.95H49.5V152.4ZM45.9 92.1C45.9 88.5 44.1 86.7 40.5 86.7H25.2C21.6 86.7 19.8 88.5 19.8 92.1V120.9C19.8 124.5 21.6 126.3 25.2 126.3H40.5C44.1 126.3 45.9 124.5 45.9 120.9V92.1Z" fill="white"/>
</svg>
